<mxfile host="app.diagrams.net" agent="Mozilla/5.0 (Windows NT 10.0; Win64; x64) AppleWebKit/537.36 (KHTML, like Gecko) Chrome/137.0.0.0 Safari/537.36" version="27.1.6">
  <diagram name="Página-1" id="8QfL5W5Hyp57S6z88IQP">
    <mxGraphModel grid="1" page="1" gridSize="10" guides="1" tooltips="1" connect="1" arrows="1" fold="1" pageScale="1" pageWidth="827" pageHeight="1169" math="0" shadow="0">
      <root>
        <mxCell id="0" />
        <mxCell id="1" parent="0" />
        <mxCell id="_pNqi3gNz3rvOo7OxNP5-10" value="Administrador" style="rounded=1;whiteSpace=wrap;html=1;align=center;verticalAlign=middle;" vertex="1" parent="1">
          <mxGeometry x="-760" y="90" width="120" height="30" as="geometry" />
        </mxCell>
        <mxCell id="_pNqi3gNz3rvOo7OxNP5-11" value="Sistema" style="rounded=1;whiteSpace=wrap;html=1;align=center;verticalAlign=middle;" vertex="1" parent="1">
          <mxGeometry x="-460" y="90" width="120" height="30" as="geometry" />
        </mxCell>
        <mxCell id="_pNqi3gNz3rvOo7OxNP5-12" value="Base de Datos" style="rounded=1;whiteSpace=wrap;html=1;align=center;verticalAlign=middle;" vertex="1" parent="1">
          <mxGeometry x="-160" y="90" width="120" height="30" as="geometry" />
        </mxCell>
        <mxCell id="_pNqi3gNz3rvOo7OxNP5-13" style="dashed=1;endArrow=none;entryX=0.5;entryY=0;entryDx=0;entryDy=0;exitX=0.75;exitY=1;exitDx=0;exitDy=0;" edge="1" parent="1" source="g9M41CX4uD3EIb8yomln-10" target="_pNqi3gNz3rvOo7OxNP5-44">
          <mxGeometry relative="1" as="geometry">
            <mxPoint x="-700" y="770" as="sourcePoint" />
            <mxPoint x="-700" y="870" as="targetPoint" />
          </mxGeometry>
        </mxCell>
        <mxCell id="_pNqi3gNz3rvOo7OxNP5-14" style="dashed=1;endArrow=none;entryX=0.5;entryY=0;entryDx=0;entryDy=0;" edge="1" parent="1" source="_pNqi3gNz3rvOo7OxNP5-65" target="_pNqi3gNz3rvOo7OxNP5-43">
          <mxGeometry relative="1" as="geometry">
            <mxPoint x="-400.42" y="130" as="sourcePoint" />
            <mxPoint x="-400" y="860" as="targetPoint" />
          </mxGeometry>
        </mxCell>
        <mxCell id="_pNqi3gNz3rvOo7OxNP5-15" style="dashed=1;endArrow=none;entryX=0.5;entryY=0;entryDx=0;entryDy=0;" edge="1" parent="1" source="_pNqi3gNz3rvOo7OxNP5-67" target="_pNqi3gNz3rvOo7OxNP5-42">
          <mxGeometry relative="1" as="geometry">
            <mxPoint x="-100" y="120" as="sourcePoint" />
            <mxPoint x="-100" y="860" as="targetPoint" />
          </mxGeometry>
        </mxCell>
        <mxCell id="_pNqi3gNz3rvOo7OxNP5-16" value="1. Pulsar el apartado &quot;Administrar eventos&quot;" style="endArrow=block;html=1;entryX=0;entryY=0.25;entryDx=0;entryDy=0;" edge="1" parent="1" target="_pNqi3gNz3rvOo7OxNP5-45">
          <mxGeometry x="-0.0345" y="10" relative="1" as="geometry">
            <mxPoint x="-700" y="150" as="sourcePoint" />
            <mxPoint x="-410" y="150" as="targetPoint" />
            <mxPoint as="offset" />
          </mxGeometry>
        </mxCell>
        <mxCell id="_pNqi3gNz3rvOo7OxNP5-17" value="2. Mostrar apartado" style="endArrow=block;html=1;entryX=1;entryY=0.25;entryDx=0;entryDy=0;" edge="1" parent="1" target="_pNqi3gNz3rvOo7OxNP5-47">
          <mxGeometry x="0.0345" y="-10" relative="1" as="geometry">
            <mxPoint x="-400" y="190" as="sourcePoint" />
            <mxPoint x="-690" y="190" as="targetPoint" />
            <mxPoint as="offset" />
          </mxGeometry>
        </mxCell>
        <mxCell id="_pNqi3gNz3rvOo7OxNP5-18" value="3. Pulsar el botón &quot;Crear Evento&quot;" style="endArrow=block;html=1;entryX=0;entryY=0.25;entryDx=0;entryDy=0;" edge="1" parent="1" target="_pNqi3gNz3rvOo7OxNP5-49">
          <mxGeometry x="0.0345" y="10" relative="1" as="geometry">
            <mxPoint x="-700" y="230" as="sourcePoint" />
            <mxPoint x="-410" y="230" as="targetPoint" />
            <mxPoint as="offset" />
          </mxGeometry>
        </mxCell>
        <mxCell id="_pNqi3gNz3rvOo7OxNP5-19" value="4. Mostrar formulario para crear un evento" style="endArrow=block;html=1;entryX=1;entryY=0.25;entryDx=0;entryDy=0;" edge="1" parent="1" target="_pNqi3gNz3rvOo7OxNP5-51">
          <mxGeometry x="0.0345" y="-10" relative="1" as="geometry">
            <mxPoint x="-400" y="270" as="sourcePoint" />
            <mxPoint x="-690" y="270" as="targetPoint" />
            <mxPoint as="offset" />
          </mxGeometry>
        </mxCell>
        <mxCell id="_pNqi3gNz3rvOo7OxNP5-20" value="5. Pulsar el botón &quot;Asignar recursos&quot;" style="endArrow=block;html=1;entryX=0;entryY=0.25;entryDx=0;entryDy=0;" edge="1" parent="1" target="_pNqi3gNz3rvOo7OxNP5-53">
          <mxGeometry x="0.0345" y="10" relative="1" as="geometry">
            <mxPoint x="-700" y="318" as="sourcePoint" />
            <mxPoint x="-410" y="310" as="targetPoint" />
            <mxPoint as="offset" />
          </mxGeometry>
        </mxCell>
        <mxCell id="_pNqi3gNz3rvOo7OxNP5-21" value="6. Consultar listado de recursos disponibles" style="endArrow=block;html=1;entryX=0;entryY=0.25;entryDx=0;entryDy=0;" edge="1" parent="1" target="_pNqi3gNz3rvOo7OxNP5-55">
          <mxGeometry x="-0.0345" y="10" relative="1" as="geometry">
            <mxPoint x="-400" y="355" as="sourcePoint" />
            <mxPoint x="-110" y="350" as="targetPoint" />
            <mxPoint as="offset" />
          </mxGeometry>
        </mxCell>
        <mxCell id="_pNqi3gNz3rvOo7OxNP5-22" value="7. Devolver datos de recursos" style="endArrow=block;html=1;entryX=1;entryY=0.25;entryDx=0;entryDy=0;" edge="1" parent="1" target="_pNqi3gNz3rvOo7OxNP5-57">
          <mxGeometry x="0.1034" y="-10" relative="1" as="geometry">
            <mxPoint x="-100" y="390" as="sourcePoint" />
            <mxPoint x="-390" y="390" as="targetPoint" />
            <mxPoint as="offset" />
          </mxGeometry>
        </mxCell>
        <mxCell id="_pNqi3gNz3rvOo7OxNP5-23" value="8. Mostrar listado de recursos" style="endArrow=block;html=1;entryX=1;entryY=0.25;entryDx=0;entryDy=0;" edge="1" parent="1" target="_pNqi3gNz3rvOo7OxNP5-59">
          <mxGeometry x="0.1034" y="-10" relative="1" as="geometry">
            <mxPoint x="-400" y="428" as="sourcePoint" />
            <mxPoint x="-690" y="430" as="targetPoint" />
            <mxPoint as="offset" />
          </mxGeometry>
        </mxCell>
        <mxCell id="_pNqi3gNz3rvOo7OxNP5-24" value="9. Seleccionar recursos" style="endArrow=block;html=1;entryX=0;entryY=0.25;entryDx=0;entryDy=0;" edge="1" parent="1" target="g9M41CX4uD3EIb8yomln-1">
          <mxGeometry x="-0.1034" y="10" relative="1" as="geometry">
            <mxPoint x="-690" y="468" as="sourcePoint" />
            <mxPoint x="-410" y="470" as="targetPoint" />
            <mxPoint as="offset" />
          </mxGeometry>
        </mxCell>
        <mxCell id="_pNqi3gNz3rvOo7OxNP5-25" value="10. Pulsar el botón &quot;Registrar asignación&quot;" style="endArrow=block;html=1;entryX=-0.211;entryY=0.12;entryDx=0;entryDy=0;entryPerimeter=0;" edge="1" parent="1" target="_pNqi3gNz3rvOo7OxNP5-61">
          <mxGeometry x="-0.1034" y="10" relative="1" as="geometry">
            <mxPoint x="-700" y="514" as="sourcePoint" />
            <mxPoint x="-410" y="510" as="targetPoint" />
            <mxPoint as="offset" />
          </mxGeometry>
        </mxCell>
        <mxCell id="_pNqi3gNz3rvOo7OxNP5-26" value="11. Validar disponibilidad de recursos" style="endArrow=block;html=1;entryX=0;entryY=0.25;entryDx=0;entryDy=0;" edge="1" parent="1" target="_pNqi3gNz3rvOo7OxNP5-63">
          <mxGeometry x="-0.0345" y="10" relative="1" as="geometry">
            <mxPoint x="-400" y="548" as="sourcePoint" />
            <mxPoint x="-110" y="550" as="targetPoint" />
            <mxPoint as="offset" />
          </mxGeometry>
        </mxCell>
        <mxCell id="_pNqi3gNz3rvOo7OxNP5-27" value="12. Confirmar disponibilidad" style="endArrow=block;html=1;entryX=1;entryY=0.25;entryDx=0;entryDy=0;" edge="1" parent="1" target="_pNqi3gNz3rvOo7OxNP5-65">
          <mxGeometry x="0.2414" y="-10" relative="1" as="geometry">
            <mxPoint x="-100" y="593" as="sourcePoint" />
            <mxPoint x="-390" y="590" as="targetPoint" />
            <mxPoint as="offset" />
          </mxGeometry>
        </mxCell>
        <mxCell id="_pNqi3gNz3rvOo7OxNP5-32" value="13. Registrar asignación de recursos" style="endArrow=block;html=1;entryX=0;entryY=0.25;entryDx=0;entryDy=0;" edge="1" parent="1" target="_pNqi3gNz3rvOo7OxNP5-67">
          <mxGeometry x="-0.0345" y="10" relative="1" as="geometry">
            <mxPoint x="-400" y="625" as="sourcePoint" />
            <mxPoint x="-110" y="630" as="targetPoint" />
            <mxPoint as="offset" />
          </mxGeometry>
        </mxCell>
        <mxCell id="_pNqi3gNz3rvOo7OxNP5-35" value="14.&amp;nbsp;Mostrar&amp;nbsp;mensaje&amp;nbsp;de&amp;nbsp;error" style="dashed=1;endArrow=block;html=1;" edge="1" parent="1">
          <mxGeometry y="-10" relative="1" as="geometry">
            <mxPoint x="-400" y="700" as="sourcePoint" />
            <mxPoint x="-690" y="700" as="targetPoint" />
            <mxPoint as="offset" />
          </mxGeometry>
        </mxCell>
        <mxCell id="_pNqi3gNz3rvOo7OxNP5-36" value="alt" style="shape=umlFrame;whiteSpace=wrap;html=1;pointerEvents=0;" vertex="1" parent="1">
          <mxGeometry x="-720" y="650" width="640" height="90" as="geometry" />
        </mxCell>
        <mxCell id="_pNqi3gNz3rvOo7OxNP5-39" value="[Recursos no disponibles]" style="text;html=1;strokeColor=none;fillColor=none;align=left;verticalAlign=middle;whiteSpace=wrap;rounded=0;fontFamily=Verdana;fontSize=11;fontStyle=1;" vertex="1" parent="1">
          <mxGeometry x="-475" y="660" width="170" height="20" as="geometry" />
        </mxCell>
        <mxCell id="_pNqi3gNz3rvOo7OxNP5-42" value="Base de Datos" style="rounded=1;whiteSpace=wrap;html=1;align=center;verticalAlign=middle;" vertex="1" parent="1">
          <mxGeometry x="-160" y="840" width="120" height="30" as="geometry" />
        </mxCell>
        <mxCell id="_pNqi3gNz3rvOo7OxNP5-43" value="Sistema" style="rounded=1;whiteSpace=wrap;html=1;align=center;verticalAlign=middle;" vertex="1" parent="1">
          <mxGeometry x="-460" y="840" width="120" height="30" as="geometry" />
        </mxCell>
        <mxCell id="_pNqi3gNz3rvOo7OxNP5-44" value="Administrador" style="rounded=1;whiteSpace=wrap;html=1;align=center;verticalAlign=middle;" vertex="1" parent="1">
          <mxGeometry x="-760" y="840" width="120" height="30" as="geometry" />
        </mxCell>
        <mxCell id="_pNqi3gNz3rvOo7OxNP5-46" value="" style="dashed=1;endArrow=none;" edge="1" parent="1" target="_pNqi3gNz3rvOo7OxNP5-45">
          <mxGeometry relative="1" as="geometry">
            <mxPoint x="-400.42" y="130" as="sourcePoint" />
            <mxPoint x="-400" y="860" as="targetPoint" />
          </mxGeometry>
        </mxCell>
        <mxCell id="_pNqi3gNz3rvOo7OxNP5-45" value="" style="rounded=0;whiteSpace=wrap;html=1;" vertex="1" parent="1">
          <mxGeometry x="-402.5" y="140" width="5" height="30" as="geometry" />
        </mxCell>
        <mxCell id="_pNqi3gNz3rvOo7OxNP5-48" value="" style="dashed=1;endArrow=none;" edge="1" parent="1" target="_pNqi3gNz3rvOo7OxNP5-47">
          <mxGeometry relative="1" as="geometry">
            <mxPoint x="-700" y="120" as="sourcePoint" />
            <mxPoint x="-700" y="870" as="targetPoint" />
          </mxGeometry>
        </mxCell>
        <mxCell id="_pNqi3gNz3rvOo7OxNP5-47" value="" style="rounded=0;whiteSpace=wrap;html=1;" vertex="1" parent="1">
          <mxGeometry x="-702.5" y="180" width="5" height="30" as="geometry" />
        </mxCell>
        <mxCell id="_pNqi3gNz3rvOo7OxNP5-50" value="" style="dashed=1;endArrow=none;" edge="1" parent="1" source="_pNqi3gNz3rvOo7OxNP5-45" target="_pNqi3gNz3rvOo7OxNP5-49">
          <mxGeometry relative="1" as="geometry">
            <mxPoint x="-400" y="190" as="sourcePoint" />
            <mxPoint x="-400" y="860" as="targetPoint" />
          </mxGeometry>
        </mxCell>
        <mxCell id="_pNqi3gNz3rvOo7OxNP5-49" value="" style="rounded=0;whiteSpace=wrap;html=1;" vertex="1" parent="1">
          <mxGeometry x="-402.5" y="220" width="5" height="30" as="geometry" />
        </mxCell>
        <mxCell id="_pNqi3gNz3rvOo7OxNP5-52" value="" style="dashed=1;endArrow=none;" edge="1" parent="1" source="_pNqi3gNz3rvOo7OxNP5-47" target="_pNqi3gNz3rvOo7OxNP5-51">
          <mxGeometry relative="1" as="geometry">
            <mxPoint x="-700" y="230" as="sourcePoint" />
            <mxPoint x="-700" y="870" as="targetPoint" />
          </mxGeometry>
        </mxCell>
        <mxCell id="_pNqi3gNz3rvOo7OxNP5-51" value="" style="rounded=0;whiteSpace=wrap;html=1;" vertex="1" parent="1">
          <mxGeometry x="-702.5" y="260" width="5" height="30" as="geometry" />
        </mxCell>
        <mxCell id="_pNqi3gNz3rvOo7OxNP5-54" value="" style="dashed=1;endArrow=none;" edge="1" parent="1" source="_pNqi3gNz3rvOo7OxNP5-49" target="_pNqi3gNz3rvOo7OxNP5-53">
          <mxGeometry relative="1" as="geometry">
            <mxPoint x="-400" y="270" as="sourcePoint" />
            <mxPoint x="-400" y="860" as="targetPoint" />
          </mxGeometry>
        </mxCell>
        <mxCell id="_pNqi3gNz3rvOo7OxNP5-53" value="" style="rounded=0;whiteSpace=wrap;html=1;" vertex="1" parent="1">
          <mxGeometry x="-402.5" y="310" width="5" height="30" as="geometry" />
        </mxCell>
        <mxCell id="_pNqi3gNz3rvOo7OxNP5-56" value="" style="dashed=1;endArrow=none;" edge="1" parent="1" target="_pNqi3gNz3rvOo7OxNP5-55">
          <mxGeometry relative="1" as="geometry">
            <mxPoint x="-100" y="120" as="sourcePoint" />
            <mxPoint x="-100" y="860" as="targetPoint" />
          </mxGeometry>
        </mxCell>
        <mxCell id="_pNqi3gNz3rvOo7OxNP5-55" value="" style="rounded=0;whiteSpace=wrap;html=1;" vertex="1" parent="1">
          <mxGeometry x="-102.5" y="350" width="5" height="20" as="geometry" />
        </mxCell>
        <mxCell id="_pNqi3gNz3rvOo7OxNP5-58" value="" style="dashed=1;endArrow=none;" edge="1" parent="1" source="_pNqi3gNz3rvOo7OxNP5-53" target="_pNqi3gNz3rvOo7OxNP5-57">
          <mxGeometry relative="1" as="geometry">
            <mxPoint x="-400" y="350" as="sourcePoint" />
            <mxPoint x="-400" y="860" as="targetPoint" />
          </mxGeometry>
        </mxCell>
        <mxCell id="_pNqi3gNz3rvOo7OxNP5-57" value="" style="rounded=0;whiteSpace=wrap;html=1;" vertex="1" parent="1">
          <mxGeometry x="-402.5" y="380" width="5" height="30" as="geometry" />
        </mxCell>
        <mxCell id="_pNqi3gNz3rvOo7OxNP5-60" value="" style="dashed=1;endArrow=none;" edge="1" parent="1" source="_pNqi3gNz3rvOo7OxNP5-51" target="_pNqi3gNz3rvOo7OxNP5-59">
          <mxGeometry relative="1" as="geometry">
            <mxPoint x="-700" y="310" as="sourcePoint" />
            <mxPoint x="-700" y="870" as="targetPoint" />
          </mxGeometry>
        </mxCell>
        <mxCell id="_pNqi3gNz3rvOo7OxNP5-59" value="" style="rounded=0;whiteSpace=wrap;html=1;" vertex="1" parent="1">
          <mxGeometry x="-702.5" y="420" width="5" height="30" as="geometry" />
        </mxCell>
        <mxCell id="_pNqi3gNz3rvOo7OxNP5-62" value="" style="dashed=1;endArrow=none;" edge="1" parent="1" source="g9M41CX4uD3EIb8yomln-1" target="_pNqi3gNz3rvOo7OxNP5-61">
          <mxGeometry relative="1" as="geometry">
            <mxPoint x="-400" y="430" as="sourcePoint" />
            <mxPoint x="-400" y="860" as="targetPoint" />
          </mxGeometry>
        </mxCell>
        <mxCell id="_pNqi3gNz3rvOo7OxNP5-61" value="" style="rounded=0;whiteSpace=wrap;html=1;" vertex="1" parent="1">
          <mxGeometry x="-402.5" y="510" width="5" height="30" as="geometry" />
        </mxCell>
        <mxCell id="_pNqi3gNz3rvOo7OxNP5-64" value="" style="dashed=1;endArrow=none;" edge="1" parent="1" source="_pNqi3gNz3rvOo7OxNP5-55" target="_pNqi3gNz3rvOo7OxNP5-63">
          <mxGeometry relative="1" as="geometry">
            <mxPoint x="-100" y="390" as="sourcePoint" />
            <mxPoint x="-100" y="860" as="targetPoint" />
          </mxGeometry>
        </mxCell>
        <mxCell id="_pNqi3gNz3rvOo7OxNP5-63" value="" style="rounded=0;whiteSpace=wrap;html=1;" vertex="1" parent="1">
          <mxGeometry x="-102.5" y="540" width="5" height="30" as="geometry" />
        </mxCell>
        <mxCell id="_pNqi3gNz3rvOo7OxNP5-66" value="" style="dashed=1;endArrow=none;" edge="1" parent="1" source="_pNqi3gNz3rvOo7OxNP5-61" target="_pNqi3gNz3rvOo7OxNP5-65">
          <mxGeometry relative="1" as="geometry">
            <mxPoint x="-400" y="550" as="sourcePoint" />
            <mxPoint x="-400" y="860" as="targetPoint" />
          </mxGeometry>
        </mxCell>
        <mxCell id="_pNqi3gNz3rvOo7OxNP5-65" value="" style="rounded=0;whiteSpace=wrap;html=1;" vertex="1" parent="1">
          <mxGeometry x="-402.5" y="585" width="5" height="30" as="geometry" />
        </mxCell>
        <mxCell id="_pNqi3gNz3rvOo7OxNP5-68" value="" style="dashed=1;endArrow=none;" edge="1" parent="1" source="_pNqi3gNz3rvOo7OxNP5-63" target="_pNqi3gNz3rvOo7OxNP5-67">
          <mxGeometry relative="1" as="geometry">
            <mxPoint x="-100" y="590" as="sourcePoint" />
            <mxPoint x="-100" y="860" as="targetPoint" />
          </mxGeometry>
        </mxCell>
        <mxCell id="_pNqi3gNz3rvOo7OxNP5-67" value="" style="rounded=0;whiteSpace=wrap;html=1;" vertex="1" parent="1">
          <mxGeometry x="-102.5" y="620" width="5" height="20" as="geometry" />
        </mxCell>
        <mxCell id="_pNqi3gNz3rvOo7OxNP5-71" value="" style="dashed=1;endArrow=none;" edge="1" parent="1" source="_pNqi3gNz3rvOo7OxNP5-59">
          <mxGeometry relative="1" as="geometry">
            <mxPoint x="-700" y="470" as="sourcePoint" />
            <mxPoint x="-700" y="730" as="targetPoint" />
          </mxGeometry>
        </mxCell>
        <mxCell id="_pNqi3gNz3rvOo7OxNP5-72" value="" style="rounded=0;whiteSpace=wrap;html=1;" vertex="1" parent="1">
          <mxGeometry x="-702.5" y="680" width="5" height="40" as="geometry" />
        </mxCell>
        <mxCell id="g9M41CX4uD3EIb8yomln-2" value="" style="dashed=1;endArrow=none;" edge="1" parent="1" source="_pNqi3gNz3rvOo7OxNP5-57" target="g9M41CX4uD3EIb8yomln-1">
          <mxGeometry relative="1" as="geometry">
            <mxPoint x="-400" y="420" as="sourcePoint" />
            <mxPoint x="-400" y="510" as="targetPoint" />
          </mxGeometry>
        </mxCell>
        <mxCell id="g9M41CX4uD3EIb8yomln-1" value="" style="rounded=0;whiteSpace=wrap;html=1;" vertex="1" parent="1">
          <mxGeometry x="-402.5" y="460" width="5" height="30" as="geometry" />
        </mxCell>
        <mxCell id="g9M41CX4uD3EIb8yomln-6" value="15.&amp;nbsp;Confirmar&amp;nbsp;registro&amp;nbsp;exitoso" style="endArrow=block;html=1;entryX=1;entryY=0.25;entryDx=0;entryDy=0;" edge="1" parent="1" target="g9M41CX4uD3EIb8yomln-9">
          <mxGeometry y="-10" relative="1" as="geometry">
            <mxPoint x="-100" y="765" as="sourcePoint" />
            <mxPoint x="-387.5" y="760" as="targetPoint" />
            <mxPoint as="offset" />
          </mxGeometry>
        </mxCell>
        <mxCell id="g9M41CX4uD3EIb8yomln-7" value="16. Notificacion de éxito: Recursos asignados correctamente" style="dashed=1;endArrow=block;html=1;entryX=1;entryY=0.25;entryDx=0;entryDy=0;" edge="1" parent="1" target="g9M41CX4uD3EIb8yomln-10">
          <mxGeometry x="0.0005" y="-10" relative="1" as="geometry">
            <mxPoint x="-400" y="800" as="sourcePoint" />
            <mxPoint x="-687.5" y="790" as="targetPoint" />
            <mxPoint as="offset" />
          </mxGeometry>
        </mxCell>
        <mxCell id="g9M41CX4uD3EIb8yomln-9" value="" style="rounded=0;whiteSpace=wrap;html=1;" vertex="1" parent="1">
          <mxGeometry x="-400" y="760" width="5" height="20" as="geometry" />
        </mxCell>
        <mxCell id="g9M41CX4uD3EIb8yomln-11" value="" style="dashed=1;endArrow=none;entryX=0.5;entryY=0;entryDx=0;entryDy=0;exitX=0.75;exitY=1;exitDx=0;exitDy=0;" edge="1" parent="1" source="_pNqi3gNz3rvOo7OxNP5-72" target="g9M41CX4uD3EIb8yomln-10">
          <mxGeometry relative="1" as="geometry">
            <mxPoint x="-699" y="720" as="sourcePoint" />
            <mxPoint x="-700" y="910" as="targetPoint" />
          </mxGeometry>
        </mxCell>
        <mxCell id="g9M41CX4uD3EIb8yomln-10" value="" style="rounded=0;whiteSpace=wrap;html=1;" vertex="1" parent="1">
          <mxGeometry x="-702.5" y="790" width="5" height="30" as="geometry" />
        </mxCell>
      </root>
    </mxGraphModel>
  </diagram>
</mxfile>
